# xmcd
#
# Track frame offsets:
#	150
#	13811
#	36709
#	51064
#	60459
#	71743
#	83849
#	94869
#	111245
#	124100
#	142370
#	152869
#	154524
#	171033
#	182575
#	187178
#	196659
#	205657
#
# Disc length: 3004 seconds
#
# Revision: 1
# Processed by: cddbd v1.5.2PL0 Copyright (c) Steve Scherf et al.
# Submitted via: audiograbber 1.83.01
#
DISCID=030bba12
DTITLE=Winters Brothers Band - Coast 2 coast
DYEAR=1900
DGENRE=
TTITLE0=Love livin this way
TTITLE1=A gun don't mind
TTITLE2=Call it off
TTITLE3=All I want to do
TTITLE4=Lies lies lies
TTITLE5=Hold on baby
TTITLE6=Misery in my soul
TTITLE7=Carolina
TTITLE8=Don't give up on love
TTITLE9=Pedal to the metal
TTITLE10=Homegrown
TTITLE11=Radio station id
TTITLE12=Force of love
TTITLE13=Road to Morocco
TTITLE14=Caz Walker commercial theme
TTITLE15=Radio station id bloopers
TTITLE16=Homegrown acoustic
TTITLE17=Hidden track
EXTD=
EXTT0=
EXTT1=
EXTT2=
EXTT3=
EXTT4=
EXTT5=
EXTT6=
EXTT7=
EXTT8=
EXTT9=
EXTT10=
EXTT11=
EXTT12=
EXTT13=
EXTT14=
EXTT15=
EXTT16=
EXTT17=
PLAYORDER=
